<svg width="199" height="39" viewBox="0 0 199 39" fill="none" xmlns="http://www.w3.org/2000/svg">
<g filter="url(#filter0_d)">
<path d="M65.04 7.896C65.152 7.576 65.328 7.336 65.568 7.176C65.824 7.016 66.104 6.936 66.408 6.936C66.792 6.936 67.12 7.056 67.392 7.296C67.68 7.536 67.824 7.856 67.824 8.256C67.824 8.4 67.784 8.608 67.704 8.88L62.544 23.16C62.416 23.48 62.2 23.728 61.896 23.904C61.608 24.08 61.288 24.168 60.936 24.168C60.584 24.168 60.256 24.08 59.952 23.904C59.648 23.728 59.44 23.48 59.328 23.16L55.344 11.856L51.288 23.16C51.16 23.48 50.944 23.728 50.64 23.904C50.352 24.08 50.032 24.168 49.68 24.168C49.328 24.168 49 24.08 48.696 23.904C48.408 23.728 48.208 23.48 48.096 23.16L42.936 8.88C42.856 8.64 42.816 8.432 42.816 8.256C42.816 7.856 42.96 7.536 43.248 7.296C43.552 7.056 43.904 6.936 44.304 6.936C44.624 6.936 44.912 7.016 45.168 7.176C45.424 7.336 45.608 7.576 45.72 7.896L49.8 19.632L54 7.968C54.112 7.648 54.296 7.4 54.552 7.224C54.808 7.032 55.088 6.936 55.392 6.936C55.696 6.936 55.976 7.032 56.232 7.224C56.504 7.4 56.696 7.656 56.808 7.992L60.888 19.776L65.04 7.896ZM83.5866 24.216C81.9386 24.216 80.5066 23.864 79.2906 23.16C78.0906 22.456 77.1626 21.448 76.5066 20.136C75.8506 18.824 75.5226 17.288 75.5226 15.528C75.5226 13.768 75.8426 12.24 76.4826 10.944C77.1386 9.632 78.0746 8.624 79.2906 7.92C80.5066 7.216 81.9386 6.864 83.5866 6.864C85.2346 6.864 86.6586 7.216 87.8586 7.92C89.0746 8.624 90.0026 9.632 90.6426 10.944C91.2986 12.24 91.6266 13.768 91.6266 15.528C91.6266 17.288 91.2986 18.824 90.6426 20.136C89.9866 21.448 89.0506 22.456 87.8346 23.16C86.6346 23.864 85.2186 24.216 83.5866 24.216ZM83.5866 21.744C85.1386 21.744 86.3466 21.208 87.2106 20.136C88.0906 19.064 88.5306 17.528 88.5306 15.528C88.5306 13.528 88.0906 12 87.2106 10.944C86.3466 9.872 85.1386 9.336 83.5866 9.336C82.0186 9.336 80.7946 9.872 79.9146 10.944C79.0506 12 78.6186 13.528 78.6186 15.528C78.6186 17.528 79.0506 19.064 79.9146 20.136C80.7946 21.208 82.0186 21.744 83.5866 21.744ZM108.29 24.216C106.642 24.216 105.21 23.864 103.994 23.16C102.794 22.456 101.866 21.448 101.21 20.136C100.554 18.824 100.226 17.288 100.226 15.528C100.226 13.768 100.546 12.24 101.186 10.944C101.842 9.632 102.778 8.624 103.994 7.92C105.21 7.216 106.642 6.864 108.29 6.864C109.938 6.864 111.362 7.216 112.562 7.92C113.778 8.624 114.706 9.632 115.346 10.944C116.002 12.24 116.33 13.768 116.33 15.528C116.33 17.288 116.002 18.824 115.346 20.136C114.69 21.448 113.754 22.456 112.538 23.16C111.338 23.864 109.922 24.216 108.29 24.216ZM108.29 21.744C109.842 21.744 111.05 21.208 111.914 20.136C112.794 19.064 113.234 17.528 113.234 15.528C113.234 13.528 112.794 12 111.914 10.944C111.05 9.872 109.842 9.336 108.29 9.336C106.722 9.336 105.498 9.872 104.618 10.944C103.754 12 103.322 13.528 103.322 15.528C103.322 17.528 103.754 19.064 104.618 20.136C105.498 21.208 106.722 21.744 108.29 21.744ZM126.945 24C126.481 24 126.113 23.872 125.841 23.616C125.585 23.36 125.457 23 125.457 22.536V8.544C125.457 8.08 125.585 7.72 125.841 7.464C126.113 7.208 126.481 7.08 126.945 7.08H131.697C134.465 7.08 136.609 7.824 138.129 9.312C139.665 10.784 140.433 12.856 140.433 15.528C140.433 18.216 139.665 20.304 138.129 21.792C136.609 23.264 134.465 24 131.697 24H126.945ZM131.505 21.48C135.393 21.48 137.337 19.496 137.337 15.528C137.337 11.576 135.393 9.6 131.505 9.6H128.553V21.48H131.505ZM151.087 24.144C150.623 24.144 150.247 24 149.959 23.712C149.687 23.424 149.551 23.048 149.551 22.584V8.496C149.551 8.032 149.687 7.664 149.959 7.392C150.247 7.104 150.623 6.96 151.087 6.96C151.567 6.96 151.943 7.104 152.215 7.392C152.503 7.664 152.647 8.032 152.647 8.496V22.584C152.647 23.048 152.503 23.424 152.215 23.712C151.943 24 151.567 24.144 151.087 24.144ZM163.789 24C163.325 24 162.957 23.872 162.685 23.616C162.429 23.36 162.301 23 162.301 22.536V8.544C162.301 8.08 162.429 7.72 162.685 7.464C162.957 7.208 163.325 7.08 163.789 7.08H172.453C172.917 7.08 173.277 7.184 173.533 7.392C173.789 7.6 173.917 7.896 173.917 8.28C173.917 8.68 173.789 8.992 173.533 9.216C173.277 9.424 172.917 9.528 172.453 9.528H165.325V14.184H171.973C172.437 14.184 172.797 14.288 173.053 14.496C173.309 14.704 173.437 15.008 173.437 15.408C173.437 15.792 173.309 16.088 173.053 16.296C172.797 16.504 172.437 16.608 171.973 16.608H165.325V21.552H172.453C172.917 21.552 173.277 21.664 173.533 21.888C173.789 22.096 173.917 22.4 173.917 22.8C173.917 23.184 173.789 23.48 173.533 23.688C173.277 23.896 172.917 24 172.453 24H163.789ZM188.055 24.216C186.823 24.216 185.655 24.056 184.551 23.736C183.463 23.4 182.575 22.952 181.887 22.392C181.519 22.12 181.335 21.736 181.335 21.24C181.335 20.904 181.431 20.616 181.623 20.376C181.831 20.12 182.071 19.992 182.343 19.992C182.631 19.992 182.959 20.104 183.327 20.328C184.015 20.824 184.735 21.184 185.487 21.408C186.239 21.632 187.071 21.744 187.983 21.744C189.151 21.744 190.047 21.544 190.671 21.144C191.295 20.728 191.607 20.128 191.607 19.344C191.607 18.736 191.311 18.272 190.719 17.952C190.143 17.616 189.175 17.296 187.815 16.992C186.407 16.688 185.263 16.336 184.383 15.936C183.503 15.536 182.839 15.024 182.391 14.4C181.943 13.776 181.719 12.984 181.719 12.024C181.719 11.032 181.999 10.144 182.559 9.36C183.119 8.576 183.895 7.968 184.887 7.536C185.895 7.088 187.023 6.864 188.271 6.864C190.559 6.864 192.423 7.472 193.863 8.688C194.071 8.864 194.215 9.04 194.295 9.216C194.391 9.376 194.439 9.584 194.439 9.84C194.439 10.176 194.335 10.472 194.127 10.728C193.935 10.968 193.703 11.088 193.431 11.088C193.271 11.088 193.119 11.064 192.975 11.016C192.847 10.968 192.671 10.88 192.447 10.752C191.791 10.272 191.151 9.92 190.527 9.696C189.919 9.456 189.167 9.336 188.271 9.336C187.183 9.336 186.319 9.56 185.679 10.008C185.055 10.44 184.743 11.048 184.743 11.832C184.743 12.488 185.023 12.992 185.583 13.344C186.143 13.696 187.095 14.024 188.439 14.328C189.863 14.648 191.015 15.008 191.895 15.408C192.791 15.792 193.471 16.288 193.935 16.896C194.415 17.504 194.655 18.264 194.655 19.176C194.655 20.168 194.375 21.048 193.815 21.816C193.271 22.568 192.495 23.16 191.487 23.592C190.495 24.008 189.351 24.216 188.055 24.216Z" fill="#3E3F43"/>
<path d="M4.5 3.28577H10.2857C14.4278 3.28577 17.7857 6.64363 17.7857 10.7858V14.7858H12C7.85787 14.7858 4.5 11.4279 4.5 7.28577V3.28577Z" stroke="#DAA520"/>
<path d="M20.2144 17.2142H26.0001C30.1422 17.2142 33.5001 20.5721 33.5001 24.7142V28.7142H27.7144C23.5722 28.7142 20.2144 25.3564 20.2144 21.2142V17.2142Z" stroke="#DAA520"/>
<path d="M27.7144 1.5H31.7144V7.28571C31.7144 11.4278 28.3565 14.7857 24.2144 14.7857H20.2144V9C20.2144 4.85787 23.5722 1.5 27.7144 1.5Z" stroke="#DAA520"/>
<path d="M13.7856 17.2142H17.7856V22.9999C17.7856 27.1421 14.4278 30.4999 10.2856 30.4999H6.28564V24.7142C6.28564 20.5721 9.64351 17.2142 13.7856 17.2142Z" stroke="#DAA520"/>
</g>
<defs>
<filter id="filter0_d" x="0" y="1" width="198.655" height="37.9999" filterUnits="userSpaceOnUse" color-interpolation-filters="sRGB">
<feFlood flood-opacity="0" result="BackgroundImageFix"/>
<feColorMatrix in="SourceAlpha" type="matrix" values="0 0 0 0 0 0 0 0 0 0 0 0 0 0 0 0 0 0 127 0" result="hardAlpha"/>
<feOffset dy="4"/>
<feGaussianBlur stdDeviation="2"/>
<feComposite in2="hardAlpha" operator="out"/>
<feColorMatrix type="matrix" values="0 0 0 0 0 0 0 0 0 0 0 0 0 0 0 0 0 0 0.25 0"/>
<feBlend mode="normal" in2="BackgroundImageFix" result="effect1_dropShadow"/>
<feBlend mode="normal" in="SourceGraphic" in2="effect1_dropShadow" result="shape"/>
</filter>
</defs>
</svg>
