<svg width="238" height="177" viewBox="0 0 238 177" fill="none" xmlns="http://www.w3.org/2000/svg">
<path d="M61.7272 168.144C61.2632 168.144 60.8872 168.008 60.5992 167.736C60.3272 167.448 60.1912 167.064 60.1912 166.584V152.544C60.1912 152.08 60.3192 151.72 60.5752 151.464C60.8472 151.208 61.2152 151.08 61.6792 151.08H67.5832C69.3912 151.08 70.7992 151.536 71.8072 152.448C72.8152 153.344 73.3192 154.608 73.3192 156.24C73.3192 157.872 72.8152 159.144 71.8072 160.056C70.7992 160.968 69.3912 161.424 67.5832 161.424H63.2872V166.584C63.2872 167.064 63.1432 167.448 62.8552 167.736C62.5832 168.008 62.2072 168.144 61.7272 168.144ZM67.1992 159.048C69.3272 159.048 70.3912 158.12 70.3912 156.264C70.3912 154.408 69.3272 153.48 67.1992 153.48H63.2872V159.048H67.1992ZM82.0886 156.024C82.5046 155.992 82.8326 156.08 83.0726 156.288C83.3126 156.496 83.4326 156.808 83.4326 157.224C83.4326 157.656 83.3286 157.976 83.1206 158.184C82.9126 158.392 82.5366 158.528 81.9926 158.592L81.2726 158.664C80.3286 158.76 79.6326 159.08 79.1846 159.624C78.7526 160.168 78.5366 160.848 78.5366 161.664V166.704C78.5366 167.168 78.3926 167.528 78.1046 167.784C77.8166 168.024 77.4566 168.144 77.0246 168.144C76.5926 168.144 76.2326 168.024 75.9446 167.784C75.6726 167.528 75.5366 167.168 75.5366 166.704V157.416C75.5366 156.968 75.6726 156.624 75.9446 156.384C76.2326 156.144 76.5846 156.024 77.0006 156.024C77.4166 156.024 77.7526 156.144 78.0086 156.384C78.2646 156.608 78.3926 156.936 78.3926 157.368V158.328C78.6966 157.624 79.1446 157.08 79.7366 156.696C80.3446 156.312 81.0166 156.096 81.7526 156.048L82.0886 156.024ZM89.8417 168.192C88.6417 168.192 87.5857 167.944 86.6737 167.448C85.7777 166.952 85.0817 166.24 84.5857 165.312C84.0897 164.384 83.8417 163.304 83.8417 162.072C83.8417 160.84 84.0897 159.768 84.5857 158.856C85.0817 157.928 85.7777 157.216 86.6737 156.72C87.5857 156.224 88.6417 155.976 89.8417 155.976C91.0417 155.976 92.0897 156.224 92.9857 156.72C93.8977 157.216 94.5937 157.928 95.0737 158.856C95.5697 159.768 95.8177 160.84 95.8177 162.072C95.8177 163.304 95.5697 164.384 95.0737 165.312C94.5937 166.24 93.8977 166.952 92.9857 167.448C92.0897 167.944 91.0417 168.192 89.8417 168.192ZM89.8177 165.864C90.7937 165.864 91.5377 165.544 92.0497 164.904C92.5617 164.264 92.8177 163.32 92.8177 162.072C92.8177 160.84 92.5617 159.904 92.0497 159.264C91.5377 158.608 90.8017 158.28 89.8417 158.28C88.8817 158.28 88.1377 158.608 87.6097 159.264C87.0977 159.904 86.8417 160.84 86.8417 162.072C86.8417 163.32 87.0977 164.264 87.6097 164.904C88.1217 165.544 88.8577 165.864 89.8177 165.864ZM108.086 150.96C108.534 150.96 108.902 151.088 109.19 151.344C109.478 151.6 109.622 151.936 109.622 152.352V166.704C109.622 167.136 109.486 167.48 109.214 167.736C108.942 167.992 108.582 168.12 108.134 168.12C107.686 168.12 107.326 167.992 107.054 167.736C106.782 167.48 106.646 167.136 106.646 166.704V166.104C106.294 166.76 105.782 167.272 105.11 167.64C104.454 168.008 103.702 168.192 102.854 168.192C101.846 168.192 100.942 167.936 100.142 167.424C99.3584 166.912 98.7424 166.192 98.2944 165.264C97.8624 164.32 97.6464 163.24 97.6464 162.024C97.6464 160.808 97.8624 159.744 98.2944 158.832C98.7424 157.92 99.3584 157.216 100.142 156.72C100.926 156.224 101.83 155.976 102.854 155.976C103.702 155.976 104.454 156.152 105.11 156.504C105.766 156.856 106.27 157.352 106.622 157.992V152.304C106.622 151.904 106.75 151.584 107.006 151.344C107.278 151.088 107.638 150.96 108.086 150.96ZM103.646 165.864C104.606 165.864 105.342 165.536 105.854 164.88C106.382 164.224 106.646 163.288 106.646 162.072C106.646 160.856 106.382 159.928 105.854 159.288C105.342 158.632 104.614 158.304 103.67 158.304C102.71 158.304 101.966 158.624 101.438 159.264C100.91 159.904 100.646 160.824 100.646 162.024C100.646 163.24 100.91 164.184 101.438 164.856C101.966 165.528 102.702 165.864 103.646 165.864ZM121.972 156.024C122.436 156.024 122.804 156.152 123.076 156.408C123.348 156.664 123.484 157.008 123.484 157.44V166.752C123.484 167.168 123.34 167.504 123.052 167.76C122.78 168.016 122.42 168.144 121.972 168.144C121.54 168.144 121.196 168.024 120.94 167.784C120.684 167.544 120.556 167.216 120.556 166.8V166.2C120.188 166.84 119.692 167.336 119.068 167.688C118.444 168.024 117.74 168.192 116.956 168.192C114.076 168.192 112.636 166.576 112.636 163.344V157.44C112.636 157.008 112.772 156.664 113.044 156.408C113.316 156.152 113.676 156.024 114.124 156.024C114.588 156.024 114.956 156.152 115.228 156.408C115.5 156.664 115.636 157.008 115.636 157.44V163.368C115.636 164.2 115.804 164.816 116.14 165.216C116.476 165.616 117.004 165.816 117.724 165.816C118.556 165.816 119.22 165.544 119.716 165C120.228 164.44 120.484 163.704 120.484 162.792V157.44C120.484 157.008 120.62 156.664 120.892 156.408C121.164 156.152 121.524 156.024 121.972 156.024ZM131.815 168.192C130.647 168.192 129.615 167.944 128.719 167.448C127.839 166.952 127.159 166.248 126.679 165.336C126.199 164.424 125.959 163.36 125.959 162.144C125.959 160.928 126.207 159.856 126.703 158.928C127.215 157.984 127.927 157.256 128.839 156.744C129.751 156.232 130.799 155.976 131.983 155.976C132.607 155.976 133.231 156.064 133.855 156.24C134.495 156.416 135.055 156.656 135.535 156.96C136.047 157.296 136.303 157.72 136.303 158.232C136.303 158.584 136.215 158.872 136.039 159.096C135.879 159.304 135.663 159.408 135.391 159.408C135.215 159.408 135.031 159.368 134.839 159.288C134.647 159.208 134.455 159.112 134.263 159C133.911 158.792 133.575 158.632 133.255 158.52C132.935 158.392 132.567 158.328 132.151 158.328C131.159 158.328 130.391 158.656 129.847 159.312C129.319 159.952 129.055 160.88 129.055 162.096C129.055 163.296 129.319 164.224 129.847 164.88C130.391 165.52 131.159 165.84 132.151 165.84C132.551 165.84 132.903 165.784 133.207 165.672C133.527 165.544 133.879 165.376 134.263 165.168C134.503 165.024 134.711 164.92 134.887 164.856C135.063 164.776 135.239 164.736 135.415 164.736C135.671 164.736 135.887 164.848 136.063 165.072C136.239 165.296 136.327 165.576 136.327 165.912C136.327 166.184 136.263 166.424 136.135 166.632C136.023 166.824 135.831 167 135.559 167.16C135.063 167.48 134.487 167.736 133.831 167.928C133.175 168.104 132.503 168.192 131.815 168.192ZM144.492 165.912C145.292 165.96 145.692 166.32 145.692 166.992C145.692 167.376 145.532 167.672 145.212 167.88C144.908 168.072 144.468 168.152 143.892 168.12L143.244 168.072C140.556 167.88 139.212 166.44 139.212 163.752V158.52H138.012C137.58 158.52 137.244 158.424 137.004 158.232C136.78 158.04 136.668 157.76 136.668 157.392C136.668 157.024 136.78 156.744 137.004 156.552C137.244 156.36 137.58 156.264 138.012 156.264H139.212V154.056C139.212 153.624 139.348 153.28 139.62 153.024C139.892 152.768 140.26 152.64 140.724 152.64C141.172 152.64 141.532 152.768 141.804 153.024C142.076 153.28 142.212 153.624 142.212 154.056V156.264H144.252C144.684 156.264 145.012 156.36 145.236 156.552C145.476 156.744 145.596 157.024 145.596 157.392C145.596 157.76 145.476 158.04 145.236 158.232C145.012 158.424 144.684 158.52 144.252 158.52H142.212V163.968C142.212 165.152 142.756 165.784 143.844 165.864L144.492 165.912ZM148.743 168.144C148.311 168.144 147.951 168.024 147.663 167.784C147.391 167.528 147.255 167.168 147.255 166.704V157.44C147.255 156.976 147.391 156.624 147.663 156.384C147.951 156.144 148.311 156.024 148.743 156.024C149.175 156.024 149.535 156.144 149.823 156.384C150.111 156.624 150.255 156.976 150.255 157.44V166.704C150.255 167.168 150.111 167.528 149.823 167.784C149.535 168.024 149.175 168.144 148.743 168.144ZM148.743 153.888C148.199 153.888 147.767 153.744 147.447 153.456C147.127 153.152 146.967 152.76 146.967 152.28C146.967 151.8 147.127 151.416 147.447 151.128C147.767 150.84 148.199 150.696 148.743 150.696C149.271 150.696 149.695 150.84 150.015 151.128C150.351 151.416 150.519 151.8 150.519 152.28C150.519 152.76 150.359 153.152 150.039 153.456C149.719 153.744 149.287 153.888 148.743 153.888ZM158.701 168.192C157.501 168.192 156.445 167.944 155.533 167.448C154.637 166.952 153.941 166.24 153.445 165.312C152.949 164.384 152.701 163.304 152.701 162.072C152.701 160.84 152.949 159.768 153.445 158.856C153.941 157.928 154.637 157.216 155.533 156.72C156.445 156.224 157.501 155.976 158.701 155.976C159.901 155.976 160.949 156.224 161.845 156.72C162.757 157.216 163.453 157.928 163.933 158.856C164.429 159.768 164.677 160.84 164.677 162.072C164.677 163.304 164.429 164.384 163.933 165.312C163.453 166.24 162.757 166.952 161.845 167.448C160.949 167.944 159.901 168.192 158.701 168.192ZM158.677 165.864C159.653 165.864 160.397 165.544 160.909 164.904C161.421 164.264 161.677 163.32 161.677 162.072C161.677 160.84 161.421 159.904 160.909 159.264C160.397 158.608 159.661 158.28 158.701 158.28C157.741 158.28 156.997 158.608 156.469 159.264C155.957 159.904 155.701 160.84 155.701 162.072C155.701 163.32 155.957 164.264 156.469 164.904C156.981 165.544 157.717 165.864 158.677 165.864ZM173.97 155.976C175.378 155.976 176.426 156.376 177.114 157.176C177.802 157.976 178.146 159.184 178.146 160.8V166.704C178.146 167.152 178.01 167.504 177.738 167.76C177.482 168.016 177.122 168.144 176.658 168.144C176.194 168.144 175.826 168.016 175.554 167.76C175.282 167.504 175.146 167.152 175.146 166.704V160.968C175.146 160.056 174.97 159.392 174.618 158.976C174.282 158.56 173.746 158.352 173.01 158.352C172.146 158.352 171.45 158.624 170.922 159.168C170.41 159.712 170.154 160.44 170.154 161.352V166.704C170.154 167.152 170.018 167.504 169.746 167.76C169.474 168.016 169.106 168.144 168.642 168.144C168.178 168.144 167.81 168.016 167.538 167.76C167.282 167.504 167.154 167.152 167.154 166.704V157.416C167.154 157 167.29 156.664 167.562 156.408C167.834 156.152 168.202 156.024 168.666 156.024C169.082 156.024 169.418 156.152 169.674 156.408C169.946 156.648 170.082 156.968 170.082 157.368V158.016C170.482 157.36 171.018 156.856 171.69 156.504C172.362 156.152 173.122 155.976 173.97 155.976Z" fill="black"/>
<path d="M71.0028 97.612C74.1388 97.612 75.7068 98.924 75.7068 101.548C75.7068 104.172 74.1388 105.484 71.0028 105.484H64.8588V114.988C64.8588 116.588 64.4108 117.836 63.5148 118.732C62.6188 119.564 61.4348 119.98 59.9628 119.98C58.5548 119.98 57.4028 119.564 56.5068 118.732C55.6108 117.836 55.1628 116.588 55.1628 114.988V105.484H28.1868C26.7788 105.484 25.6908 105.1 24.9228 104.332C24.1548 103.564 23.7708 102.572 23.7708 101.356C23.7708 100.076 24.1868 98.828 25.0188 97.612L55.6428 53.548C56.6668 52.076 58.1068 51.34 59.9628 51.34C61.3068 51.34 62.4588 51.788 63.4188 52.684C64.3788 53.516 64.8588 54.732 64.8588 56.332V97.612H71.0028ZM55.1628 97.612V67.66L34.4268 97.612H55.1628Z" fill="#F9BDBD" fill-opacity="0.25"/>
<path d="M164.428 26.4387L163.516 26.2374V23.2258C163.516 11.4677 153.984 1.93549 142.226 1.93549C132.641 1.93549 124.549 8.27419 121.88 16.9839L119.728 16.5058C117.368 15.9813 115.129 17.7774 115.129 20.1948C115.129 21.9658 116.36 23.4987 118.088 23.8839L151.895 31.3974L155.987 32.3071L162.788 33.8187C165.148 34.3413 167.387 32.5452 167.387 30.1277C167.387 28.3568 166.156 26.8239 164.428 26.4387Z" fill="#A8DCEC"/>
<path d="M76.4194 56.129L80.1897 48.3871L76.4194 40.6452L85.0787 40.0065L89.9678 32.9032V1.93549H70.6129V118.065H89.9678V63.871L85.0787 56.7677L76.4194 56.129Z" fill="#F7DEA6"/>
<path d="M163.315 35.8103C163.417 35.8161 163.52 35.8432 163.621 35.8432C164.904 35.8432 166.158 35.4077 167.184 34.5852C168.544 33.4974 169.323 31.8716 169.323 30.1277C169.323 27.6426 167.755 25.5194 165.452 24.7374V23.2258C165.452 10.4187 155.033 0 142.226 0C132.651 0 124.079 5.95355 120.62 14.7213L120.146 14.6168C118.446 14.2374 116.691 14.6458 115.332 15.7374C113.972 16.8252 113.194 18.451 113.194 20.1948C113.194 22.68 114.761 24.8032 117.064 25.5852V32.9032C117.064 42.7839 123.275 51.2206 131.991 54.569C130.303 55.3645 128.697 56.3419 127.23 57.5168L124.127 60H110.61L109.626 55.4052C110.61 54.7026 111.258 53.5568 111.258 52.2581H119.757L118.801 49.411C117.597 45.7935 114.471 43.2368 110.784 42.6968C110.128 41.4813 108.86 40.6452 107.387 40.6452H99.6451C98.2187 40.6452 96.9838 41.429 96.3122 42.5806H91.9032C89.7684 42.5806 88.0322 44.3168 88.0322 46.4516V50.3226C88.0322 52.4574 89.7684 54.1935 91.9032 54.1935H96.3122C96.7148 54.8826 97.3148 55.4381 98.0445 55.7729L99.74 62.5568C98.4916 63.9329 97.7096 65.7406 97.7096 67.7419C97.7096 71.0961 99.8658 73.9297 102.854 75.0039L104.892 83.16C105.198 84.389 105.932 85.409 106.901 86.1077C105.961 87.9 105.452 89.88 105.452 91.9355V108.927L103.276 109.653C101.104 110.377 99.6451 112.401 99.6451 114.691C99.6451 117.619 102.026 120 104.954 120H128.677V119.923C129.272 119.865 129.864 119.777 130.446 119.644L152.972 114.445L154.977 117.455C156.039 119.048 157.818 120 159.734 120C162.887 120 165.452 117.435 165.452 114.283V102.581C165.452 99.3793 162.846 96.7742 159.645 96.7742H153.788C155.017 95.1523 155.774 93.1548 155.774 90.9677V60H155.745C155.639 57.0581 153.949 54.5419 151.499 53.2316C157.849 49.7187 162.37 43.3161 163.315 35.8103ZM142.226 3.87097C152.898 3.87097 161.581 12.5535 161.581 23.2258V23.8239L124.458 15.5748C127.479 8.58 134.455 3.87097 142.226 3.87097ZM120.935 32.9032V26.4987L136.419 29.94V36.7742H140.29C141.359 36.7742 142.226 37.6413 142.226 38.7097C142.226 39.7781 141.359 40.6452 140.29 40.6452H136.419V51.8671C127.595 50.069 120.935 42.2497 120.935 32.9032ZM130.886 59.6342C132.38 58.6161 134.002 57.8071 135.705 57.2245L130.886 59.6342ZM103.185 60.3774L102.123 56.129H105.823L106.652 60H105.452C104.658 60 103.907 60.1548 103.185 60.3774ZM111.258 48.3871V46.7981C112.222 47.1213 113.101 47.6497 113.792 48.3871H111.258ZM99.6451 44.5161H107.387L107.391 52.2581H99.6451V44.5161ZM91.9032 46.4516H95.7742V50.3226H91.9032V46.4516ZM105.452 63.871H129.417L133.288 71.6129H105.452C103.317 71.6129 101.581 69.8768 101.581 67.7419C101.581 65.6071 103.317 63.871 105.452 63.871ZM115.319 98.6284C113.929 100.848 113.194 103.411 113.194 106.032C113.194 106.835 113.277 107.619 113.408 108.387H109.323V91.9355C109.323 90.1606 109.859 88.4555 110.859 87.0039C112.607 86.6864 114.055 85.5019 114.724 83.9032C117.361 82.831 120.481 83.1387 122.869 84.7219V86.5432L115.319 98.6284ZM114.856 79.8116L113.929 75.4839H122.871V80.3574C120.343 79.3316 117.494 79.1516 114.856 79.8116ZM109.969 75.4839L111.227 81.3503C111.248 81.4452 111.258 81.5419 111.258 81.6368V81.9019C111.258 82.6316 110.664 83.2258 109.932 83.2258C109.324 83.2258 108.794 82.8116 108.645 82.2213L106.963 75.4839H109.969ZM126.742 75.4839H136.921L151.644 67.3026C151.735 67.2523 151.814 67.1884 151.903 67.1342V85.1613H126.742V75.4839ZM104.954 116.129C104.161 116.129 103.516 115.485 103.516 114.691C103.516 114.072 103.911 113.522 104.501 113.325L107.701 112.258H114.68C115.41 113.712 116.383 115.018 117.556 116.129H104.954ZM161.581 102.581V114.283C161.581 115.301 160.752 116.129 159.734 116.129C159.115 116.129 158.542 115.823 158.197 115.306L155.774 111.674V100.645H159.645C160.714 100.645 161.581 101.512 161.581 102.581ZM138.355 100.645H146.097H151.903V110.717L129.577 115.87C128.832 116.042 128.07 116.129 127.162 116.129C121.594 116.129 117.064 111.6 117.064 106.032C117.064 104.137 117.595 102.285 118.599 100.68L125.879 89.0323H151.903V90.9677C151.903 94.169 149.298 96.7742 146.097 96.7742H138.355H130.613V100.645H138.355ZM149.766 63.9194L137.248 70.8735L133.21 62.7987L145.671 56.5664C146.25 56.28 146.894 56.129 147.535 56.129H147.746C150.039 56.129 151.903 57.9929 151.903 60.2845C151.903 61.7961 151.084 63.1858 149.766 63.9194ZM140.29 52.2581V44.5161C143.492 44.5161 146.097 41.911 146.097 38.7097C146.097 35.5084 143.492 32.9032 140.29 32.9032V30.8013L151.475 33.2864L152.315 29.5065L118.508 21.9929C117.67 21.809 117.064 21.0523 117.064 20.1948C117.064 19.6335 117.316 19.1071 117.754 18.7568C118.191 18.4065 118.758 18.2729 119.308 18.3968L164.008 28.3297C164.846 28.5135 165.452 29.2703 165.452 30.1277C165.452 30.689 165.2 31.2155 164.763 31.5658C164.325 31.9161 163.756 32.0477 163.208 31.9258L156.407 30.4161L155.567 34.1961L159.514 35.0729C158.432 44.7252 150.227 52.2581 140.29 52.2581Z" fill="#333333"/>
<path d="M93.2638 55.6703L89.9677 60.4568L86.1451 54.9058L79.4096 54.4084L82.3438 48.3871L79.4096 42.3658L86.1451 41.8684L89.9677 36.3174L93.2638 41.1058L96.4496 38.909L91.9032 32.3013V0H68.6774V120H91.9032V64.4729L96.4516 57.8671L93.2638 55.6703ZM72.5483 116.129V3.87097H88.0322V32.3013L84.0103 38.1445L73.429 38.9245L78.0374 48.3871L73.429 57.8497L84.0103 58.6297L88.0322 64.4729V116.129H72.5483Z" fill="#333333"/>
<path d="M128.677 30.9677H124.806V34.8387H128.677V30.9677Z" fill="#333333"/>
<path d="M80.2903 7.74194H76.4193V23.2258H80.2903V7.74194Z" fill="#333333"/>
<path d="M80.2903 27.0968H76.4193V30.9678H80.2903V27.0968Z" fill="#333333"/>
<path d="M84.1613 65.8065H80.2903V81.2903H84.1613V65.8065Z" fill="#333333"/>
<path d="M80.2903 100.645H76.4193V112.258H80.2903V100.645Z" fill="#333333"/>
</svg>
